<svg width="136" height="127" fill="none" xmlns="http://www.w3.org/2000/svg"><g clip-path="url(#a)" fill="#fff"><path d="M121.8 0H13.742C6.023.017.014 6.032 0 13.762v72.265c0 7.73 6.012 13.725 13.73 13.756 4.062.014 8.123.045 12.181-.026 1.1-.02 1.31.329 1.304 1.353-.046 6.896 0 13.793-.037 20.701 0 2.064.619 3.712 2.522 4.681 1.988 1.013 3.692.448 5.347-.873 10.224-8.21 20.458-16.413 30.702-24.608a5.05 5.05 0 0 1 3.422-1.242c17.562.041 35.124.05 52.686.025 8.216 0 14.123-5.884 14.126-14.073V14.16C135.991 5.868 130.11 0 121.8 0Zm.032 90.712c-18.412 0-36.825-.006-55.24-.018a6.45 6.45 0 0 0-4.282 1.486 6806.664 6806.664 0 0 1-24.965 20.003c-.259.205-.529.395-1.07.8V95.748c0-3.185-1.83-5.028-4.988-5.034H14.148c-3.251 0-5.066-1.826-5.066-5.104-.008-23.801-.006-47.611.006-71.431 0-3.284 1.803-5.105 5.049-5.105h107.774c3.172 0 5.016 1.84 5.016 5.005v71.568c0 3.255-1.824 5.064-5.095 5.064Z"/><path d="m102.208 66.279-16.642-9.074v8.952c0 3.097-1.743 5.04-4.808 5.402-.377.042-.756.063-1.136.063H39.696c-3.16 0-5.02-1.257-5.788-3.76a6.086 6.086 0 0 1-.193-1.818V33.887c0-3.48 2.062-5.536 5.552-5.536h40.776c3.478 0 5.506 2.056 5.515 5.558v8.924l16.639-9.057.011 32.503Z"/></g><defs><clipPath id="a"><path fill="#fff" d="M0 0h136v127H0z"/></clipPath></defs></svg>